<?xml version="1.0" encoding="UTF-8" standalone="no"?><!-- Generator: Gravit.io --><svg xmlns="http://www.w3.org/2000/svg" xmlns:xlink="http://www.w3.org/1999/xlink" style="isolation:isolate" viewBox="0 0 900 900" width="900pt" height="900pt"><defs><clipPath id="_clipPath_KFzDRWez8tSEUfBSWfbchorjSweFi9xa"><rect width="900" height="900"/></clipPath></defs><g clip-path="url(#_clipPath_KFzDRWez8tSEUfBSWfbchorjSweFi9xa)"><path d=" M 609.975 879.79 C 610.165 881.317 609.231 882.148 608.117 881.978 C 607.003 881.808 606.552 880.774 607.564 879.5 C 608.575 878.226 609.975 879.79 609.975 879.79 Z  M 782.985 757.75 C 783.233 759.315 780.276 758.967 780.276 758.967 C 778.57 757.925 778.684 756.739 779.971 756.205 C 781.258 755.67 782.738 756.183 782.985 757.749 L 782.985 757.75 Z  M 768.85 744.63 C 769.435 745.477 768.121 746 768.121 746 C 767.103 745.815 766.783 745.1 767.142 744.475 C 767.502 743.849 768.264 743.784 768.85 744.63 L 768.85 744.63 Z  M 549.998 703.27 C 549.96 704.318 548.49 703.93 548.49 703.93 C 547.73 703.149 547.914 702.372 548.626 702.087 C 549.338 701.802 550.037 702.221 549.998 703.27 L 549.998 703.27 Z  M 238.85 634.63 C 239.435 635.477 238.121 636 238.121 636 C 237.103 635.815 236.783 635.1 237.142 634.475 C 237.502 633.849 238.264 633.784 238.85 634.63 L 238.85 634.63 Z  M 687.764 628.968 C 688.662 630.25 686.704 631 686.704 631 C 685.174 630.697 684.678 629.62 685.202 628.692 C 685.726 627.765 686.867 627.686 687.764 628.968 L 687.764 628.968 Z  M 211.774 625.63 C 212.653 626.476 210.682 627 210.682 627 C 209.154 626.814 208.674 626.1 209.214 625.475 C 209.754 624.849 210.896 624.784 211.774 625.63 Z  M 832.546 595.169 C 833.221 594.683 833.946 595.25 833.999 596.824 C 834.052 598.396 832.573 597.938 832.573 597.938 C 831.758 596.833 831.87 595.654 832.546 595.168 L 832.546 595.169 Z  M 96.998 556.824 C 97.078 558.396 94.858 557.938 94.858 557.938 C 93.637 556.833 93.806 555.654 94.818 555.168 C 95.832 554.683 96.918 555.251 96.998 556.824 Z  M 651.202 450.692 C 651.726 449.765 652.867 449.686 653.764 450.968 C 654.598 452.158 652.97 452.89 652.734 452.988 L 652.705 453 C 651.174 452.697 650.678 451.62 651.202 450.692 Z  M 722.985 437.749 C 723.233 439.315 720.276 438.967 720.276 438.967 C 718.57 437.925 718.684 436.739 719.971 436.205 C 721.258 435.67 722.738 436.183 722.985 437.749 L 722.985 437.749 Z  M 92.893 379.396 C 93.338 380.872 92.386 382.213 90.307 381.972 C 88.229 381.731 89.252 378.836 89.252 378.836 C 90.933 377.43 92.447 377.919 92.892 379.396 L 92.893 379.396 Z  M 68.187 326.385 C 69.076 325.71 69.808 325.984 69.971 326.731 C 70.134 327.48 69.609 328.135 68.588 327.976 C 67.566 327.818 68.187 326.385 68.187 326.385 L 68.187 326.385 Z  M 139.404 307.365 C 140.429 308.069 140.182 309.225 138.273 309.875 C 136.363 310.525 136 308.424 136 308.424 C 136.853 306.951 138.38 306.663 139.404 307.366 L 139.404 307.365 Z  M 472.984 305.789 C 473.11 307.317 472.487 308.149 471.744 307.979 C 471.002 307.809 470.701 306.774 471.376 305.499 C 472.05 304.226 472.984 305.789 472.984 305.789 Z  M 541 299.162 C 540.486 300.108 539.71 300.213 539.242 299.678 C 538.775 299.143 538.968 298.376 539.957 298.048 C 540.947 297.721 541 299.162 541 299.162 Z  M 545 297.162 C 544.23 298.108 543.064 298.213 542.363 297.678 C 541.663 297.143 541.952 296.376 543.436 296.048 C 544.92 295.721 545 297.162 545 297.162 Z  M 525 254.084 C 524.546 255.056 523.777 255.223 523.28 254.734 C 522.782 254.245 522.927 253.474 523.893 253.072 C 524.86 252.669 525 254.084 525 254.084 Z  M 440 246.579 C 439.21 249.046 437.695 249.564 436.639 248.422 C 435.582 247.28 435.779 245.353 437.662 244.225 C 439.545 243.096 440 246.579 440 246.579 L 440 246.579 Z  M 857.998 212.269 C 857.96 213.319 856.49 212.929 856.49 212.929 C 855.731 212.149 855.914 211.372 856.626 211.087 C 857.338 210.802 858.037 211.221 857.998 212.269 L 857.998 212.269 Z  M 672 150.533 C 671.2 152.018 669.683 152.339 668.631 151.662 C 667.581 150.985 667.785 149.83 669.673 149.14 C 671.56 148.45 672 150.533 672 150.533 Z  M 203.764 140.968 C 204.598 142.158 202.97 142.89 202.734 142.988 L 202.705 143 C 201.174 142.697 200.678 141.62 201.202 140.692 C 201.726 139.765 202.867 139.686 203.764 140.968 L 203.764 140.968 Z  M 882.971 126.205 C 884.258 125.67 885.738 126.183 885.985 127.749 C 886.233 129.315 883.276 128.967 883.276 128.967 C 881.57 127.925 881.684 126.739 882.971 126.205 L 882.971 126.205 Z  M 231.998 111.269 C 231.96 112.319 230.49 111.929 230.49 111.929 C 229.731 111.149 229.914 110.372 230.626 110.087 C 231.338 109.802 232.037 110.221 231.998 111.269 Z  M 231.998 103.269 C 231.96 104.319 230.49 103.929 230.49 103.929 C 229.73 103.149 229.914 102.372 230.626 102.087 C 231.338 101.802 232.037 102.221 231.998 103.269 Z  M 726.998 61.215 C 727.052 62.265 725.573 61.959 725.573 61.959 C 724.758 61.222 724.871 60.436 725.546 60.113 C 726.221 59.788 726.946 60.167 726.999 61.215 L 726.998 61.215 Z  M 299.687 45.968 C 300.884 47.25 298.275 48 298.275 48 C 296.233 47.697 295.571 46.62 296.27 45.692 C 296.969 44.765 298.49 44.686 299.687 45.968 Z  M 40.235 42.306 C 41.155 41.706 41.865 42.047 41.984 42.814 C 42.104 43.582 41.547 44.194 40.543 43.943 C 39.539 43.692 40.235 42.306 40.235 42.306 Z " fill="rgb(0,0,0)"/><path d=" M 434.819 805.169 C 435.832 804.683 436.919 805.251 436.998 806.824 C 437.078 808.396 434.858 807.938 434.858 807.938 C 433.637 806.833 433.806 805.654 434.818 805.168 L 434.819 805.169 Z  M 386.993 538.715 C 387.141 540.275 384.923 539.977 384.923 539.977 C 383.663 538.964 383.777 537.777 384.76 537.222 C 385.743 536.665 386.844 537.154 386.993 538.715 Z  M 92 349.945 C 92.424 348.964 93.188 348.775 93.7 349.247 C 94.214 349.718 94.092 350.489 93.138 350.918 C 92.184 351.348 92 349.945 92 349.945 Z  M 429 292.162 C 428.486 293.108 427.71 293.213 427.242 292.678 C 426.775 292.143 426.968 291.376 427.957 291.048 C 428.947 290.721 429 292.162 429 292.162 Z  M 436 289.743 C 435.487 291.161 434.71 291.32 434.242 290.517 C 433.775 289.715 433.968 288.564 434.957 288.073 C 435.947 287.581 436 289.743 436 289.743 Z  M 450.996 268.051 L 451 268.084 C 450.546 269.056 449.777 269.223 449.28 268.734 C 448.782 268.245 448.927 267.474 449.893 267.072 C 450.772 266.706 450.968 267.842 450.996 268.052 L 450.996 268.051 Z " fill="rgb(0,0,0)"/><path d=" M 573.102 521.555 C 574.481 520.957 575.546 521.297 575.726 522.065 C 575.906 522.832 575.071 523.445 573.565 523.193 C 572.059 522.942 573.102 521.555 573.102 521.555 Z  M 457.763 403.472 C 459.073 402.915 460.543 403.404 460.741 404.965 C 460.938 406.525 457.98 406.227 457.98 406.227 C 456.3 405.214 456.453 404.027 457.763 403.472 Z  M 746.985 278.556 C 747.904 277.956 748.615 278.297 748.734 279.064 C 748.854 279.832 748.297 280.444 747.293 280.193 C 746.289 279.942 746.985 278.556 746.985 278.556 Z " fill="rgb(0,0,0)"/><path d=" M 889.971 473.205 C 891.258 472.67 892.737 473.183 892.985 474.749 C 893.233 476.316 890.276 475.967 890.276 475.967 C 888.57 474.924 888.684 473.739 889.971 473.205 L 889.971 473.205 Z  M 264.142 47.475 C 264.502 46.849 265.264 46.784 265.85 47.63 C 266.435 48.477 265.121 49 265.121 49 C 264.103 48.815 263.783 48.1 264.142 47.474 L 264.142 47.475 Z " fill="rgb(0,0,0)"/><path d=" M 36.626 858.087 C 37.338 857.802 38.037 858.221 37.998 859.27 C 37.96 860.318 36.49 859.93 36.49 859.93 C 35.731 859.149 35.914 858.372 36.626 858.087 Z  M 206.626 618.087 C 207.338 617.802 208.037 618.221 207.998 619.27 C 207.96 620.318 206.49 619.93 206.49 619.93 C 205.731 619.149 205.914 618.372 206.626 618.087 Z  M 208 419.424 C 208.64 417.951 209.785 417.663 210.553 418.366 C 211.322 419.068 211.137 420.224 209.704 420.876 C 208.272 421.526 208 419.424 208 419.424 Z  M 280.142 62.474 C 280.502 61.849 281.264 61.784 281.85 62.63 C 282.435 63.476 281.121 64 281.121 64 C 280.102 63.815 279.783 63.1 280.142 62.475 L 280.142 62.474 Z " fill="rgb(0,0,0)"/><path d=" M 371.686 881.29 C 372.883 882.999 370.274 884 370.274 884 C 368.231 883.596 367.57 882.16 368.269 880.923 C 368.968 879.686 370.489 879.582 371.686 881.29 Z  M 186.7 794.247 C 187.213 794.718 187.091 795.489 186.137 795.918 C 185.183 796.348 184.999 794.945 184.999 794.945 C 185.424 793.964 186.187 793.775 186.7 794.247 L 186.7 794.247 Z  M 635 704.945 C 635.425 703.964 636.188 703.775 636.701 704.247 C 637.214 704.718 637.092 705.489 636.138 705.918 C 635.184 706.348 635 704.945 635 704.945 L 635 704.945 Z  M 92.701 552.247 C 93.214 552.718 93.092 553.489 92.138 553.918 C 91.184 554.348 91 552.945 91 552.945 C 91.425 551.965 92.188 551.775 92.701 552.247 L 92.701 552.247 Z  M 511.984 515.222 C 512.104 516.372 511.547 517.292 510.543 516.914 C 509.539 516.537 510.235 514.458 510.235 514.458 C 511.155 513.56 511.865 514.071 511.984 515.222 L 511.984 515.222 Z  M 673.993 146.715 C 674.141 148.275 671.923 147.977 671.923 147.977 C 670.663 146.964 670.777 145.777 671.76 145.221 C 672.743 144.665 673.845 145.154 673.993 146.715 L 673.993 146.715 Z " fill="rgb(0,0,0)"/><path d=" M 655.626 765.174 C 656.338 764.604 657.037 765.442 656.998 767.54 C 656.96 769.636 655.49 768.86 655.49 768.86 C 654.73 767.298 654.914 765.743 655.626 765.174 L 655.626 765.174 Z  M 185.626 205.131 C 186.338 204.704 187.037 205.331 186.998 206.905 C 186.96 208.477 185.49 207.895 185.49 207.895 C 184.73 206.724 184.914 205.558 185.626 205.131 Z " fill="rgb(0,0,0)"/><circle vector-effect="non-scaling-stroke" cx="223.18106" cy="250.11377" r="0.32322644999999284" fill="rgb(128,128,128)" stroke-width="1" stroke="rgb(26,132,255)" stroke-linejoin="miter" stroke-linecap="butt" stroke-miterlimit="4"/><circle vector-effect="non-scaling-stroke" cx="78.762444" cy="266.79089" r="0.19198672000000272" fill="rgb(128,128,128)" stroke-width="1" stroke="rgb(26,132,255)" stroke-linejoin="miter" stroke-linecap="butt" stroke-miterlimit="4"/><g opacity="0.708491"><mask id="_mask_wcu2X2PnLRsWTj2M2LYHzhTeMDFvrMOi" x="-200%" y="-200%" width="400%" height="400%"><rect x="-200%" y="-200%" width="400%" height="400%" style="fill:white;"/><path d=" M 438.673 46.576 C 439.581 48.511 440.761 50.295 441.919 52.084 C 443.104 53.911 445.688 52.236 444.504 50.409 L 444.504 50.409 C 443.466 48.809 442.413 47.214 441.57 45.5 C 440.809 43.452 437.913 44.528 438.673 46.576 Z " fill="black" fill-opacity="0.719707" stroke="none"/></mask><path d=" M 438.673 46.576 C 439.581 48.511 440.761 50.295 441.919 52.084 C 443.104 53.911 445.688 52.236 444.504 50.409 L 444.504 50.409 C 443.466 48.809 442.413 47.214 441.57 45.5 C 440.809 43.452 437.913 44.528 438.673 46.576 Z " fill="rgb(255,0,0)" fill-opacity="0.719707"/><path d=" M 438.673 46.576 C 439.581 48.511 440.761 50.295 441.919 52.084 C 443.104 53.911 445.688 52.236 444.504 50.409 L 444.504 50.409 C 443.466 48.809 442.413 47.214 441.57 45.5 C 440.809 43.452 437.913 44.528 438.673 46.576 Z " fill="rgb(255,0,0)" fill-opacity="0.719707" mask="url(#_mask_wcu2X2PnLRsWTj2M2LYHzhTeMDFvrMOi)" vector-effect="non-scaling-stroke" stroke-width="0.266" stroke="rgb(26,132,255)" stroke-linejoin="miter" stroke-linecap="butt" stroke-miterlimit="4"/></g><g opacity="0.708491"><mask id="_mask_e43Oj8dXvtXZhYCocqPdNsWYejF6mvHX" x="-200%" y="-200%" width="400%" height="400%"><rect x="-200%" y="-200%" width="400%" height="400%" style="fill:white;"/><path d=" M 111.693 149.504 C 110.116 151.134 110.916 150.274 109.299 152.094 C 107.853 153.725 110.159 155.771 111.605 154.14 L 111.605 154.14 C 113.131 152.419 112.36 153.248 113.913 151.651 C 115.431 150.081 113.21 147.934 111.693 149.504 Z " fill="black" fill-opacity="0.719707" stroke="none"/></mask><path d=" M 111.693 149.504 C 110.116 151.134 110.916 150.274 109.299 152.094 C 107.853 153.725 110.159 155.771 111.605 154.14 L 111.605 154.14 C 113.131 152.419 112.36 153.248 113.913 151.651 C 115.431 150.081 113.21 147.934 111.693 149.504 Z " fill="rgb(255,0,0)" fill-opacity="0.719707"/><path d=" M 111.693 149.504 C 110.116 151.134 110.916 150.274 109.299 152.094 C 107.853 153.725 110.159 155.771 111.605 154.14 L 111.605 154.14 C 113.131 152.419 112.36 153.248 113.913 151.651 C 115.431 150.081 113.21 147.934 111.693 149.504 Z " fill="rgb(255,0,0)" fill-opacity="0.719707" mask="url(#_mask_e43Oj8dXvtXZhYCocqPdNsWYejF6mvHX)" vector-effect="non-scaling-stroke" stroke-width="0.266" stroke="rgb(26,132,255)" stroke-linejoin="miter" stroke-linecap="butt" stroke-miterlimit="4"/></g><ellipse vector-effect="non-scaling-stroke" cx="457.5" cy="167.5" rx="0.5" ry="3.5" fill="rgb(235,235,235)"/><ellipse vector-effect="non-scaling-stroke" cx="345" cy="264.2499823044697" rx="3" ry="2.749914330427657" fill="rgb(0,255,0)"/><defs><filter id="dPGMIejAzDqHqRviRCNkGUXszaXKWs8n" x="-200%" y="-200%" width="400%" height="400%" filterUnits="objectBoundingBox" color-interpolation-filters="sRGB"><feGaussianBlur xmlns="http://www.w3.org/2000/svg" in="SourceGraphic" stdDeviation="2.146804531419514"/><feOffset xmlns="http://www.w3.org/2000/svg" dx="0" dy="0" result="pf_100_offsetBlur"/><feFlood xmlns="http://www.w3.org/2000/svg" flood-color="#000000" flood-opacity="0.65"/><feComposite xmlns="http://www.w3.org/2000/svg" in2="pf_100_offsetBlur" operator="in" result="pf_100_dropShadow"/><feBlend xmlns="http://www.w3.org/2000/svg" in="SourceGraphic" in2="pf_100_dropShadow" mode="normal"/></filter></defs><g filter="url(#dPGMIejAzDqHqRviRCNkGUXszaXKWs8n)"><ellipse vector-effect="non-scaling-stroke" cx="534.8293814066421" cy="441.22095994229585" rx="2.6666666666667425" ry="2" fill="rgb(249,0,0)"/></g><path d=" M 671.124 313.693 C 670.554 314.037 669.861 314.239 669.112 314.239 C 667.18 314.239 665.612 312.894 665.612 311.239 L 669.112 311.239 L 671.124 313.693 Z " fill="rgb(76,61,159)"/></g></svg>